<?xml version="1.0" encoding="utf-8"?>
<!-- Generator: Adobe Illustrator 24.3.0, SVG Export Plug-In . SVG Version: 6.00 Build 0)  -->
<svg version="1.1" id="Layer_1" xmlns="http://www.w3.org/2000/svg" xmlns:xlink="http://www.w3.org/1999/xlink" x="0px" y="0px"
	 viewBox="0 0 500 500" style="enable-background:new 0 0 500 500;" xml:space="preserve">
<style type="text/css">
	.st0{fill:url(#SVGID_1_);}
	.st1{fill:#FFFFFF;}
</style>
<g>
	<linearGradient id="SVGID_1_" gradientUnits="userSpaceOnUse" x1="301.4037" y1="324.2485" x2="199.1401" y2="147.1228">
		<stop  offset="5.274512e-07" style="stop-color:#0352CC"/>
		<stop  offset="1" style="stop-color:#1CBBEF"/>
	</linearGradient>
	<circle class="st0" cx="250.27" cy="235.69" r="102.25"/>
</g>
<g>
	<path class="st1" d="M169.03,276.84l37.92-82.68c0.24-0.6,1.08-1.08,1.8-1.08c0.72,0,1.44,0.48,1.68,1.08l37.92,82.68
		c0.36,0.84,0,1.44-0.96,1.44h-11.76c-0.96,0-1.92-0.6-2.28-1.44l-3.36-7.32c-0.84-1.8-2.76-3-4.8-3h-24.24
		c-0.96,0-1.32-0.6-0.96-1.44l4.92-10.56c0.36-0.84,1.2-1.44,2.16-1.44h12c2.04,0,2.76-1.2,1.92-3.12l-10.8-23.52
		c-0.48-0.96-0.96-1.44-1.44-1.44c-0.48,0-0.96,0.48-1.44,1.44l-23.28,50.4c-0.36,0.84-1.32,1.44-2.16,1.44h-11.88
		C169.03,278.28,168.67,277.68,169.03,276.84z"/>
	<path class="st1" d="M252.19,276.84l37.92-82.68c0.24-0.6,1.08-1.08,1.8-1.08s1.44,0.48,1.68,1.08l37.92,82.68
		c0.36,0.84,0,1.44-0.96,1.44h-11.76c-0.96,0-1.92-0.6-2.28-1.44l-3.36-7.32c-0.84-1.8-2.76-3-4.8-3h-24.24
		c-0.96,0-1.32-0.6-0.96-1.44l4.92-10.56c0.36-0.84,1.2-1.44,2.16-1.44h12c2.04,0,2.76-1.2,1.92-3.12l-10.8-23.52
		c-0.48-0.96-0.96-1.44-1.44-1.44c-0.48,0-0.96,0.48-1.44,1.44l-23.28,50.4c-0.36,0.84-1.32,1.44-2.16,1.44h-11.88
		C252.19,278.28,251.83,277.68,252.19,276.84z"/>
</g>
</svg>
