<svg xmlns="http://www.w3.org/2000/svg" xmlns:xlink="http://www.w3.org/1999/xlink" width="109.212" height="102" viewBox="0 0 109.212 102">
  <defs>
    <linearGradient id="linear-gradient" x1="0.251" y1="0.995" x2="0.749" y2="0.071" gradientUnits="objectBoundingBox">
      <stop offset="0" stop-color="#3c999a"/>
      <stop offset="1" stop-color="#47a836"/>
    </linearGradient>
    <linearGradient id="linear-gradient-2" x1="0.286" y1="0.941" x2="0.675" y2="-0.166" xlink:href="#linear-gradient"/>
  </defs>
  <g id="Group_444" data-name="Group 444" transform="translate(-267.61 -282.956)">
    <path id="Path_268" data-name="Path 268" d="M314.947,360.195a2.231,2.231,0,0,0,1.886.725,1.191,1.191,0,0,1,1.265,1.319c.033.814-.23,1.314-1.158,1.351a3.647,3.647,0,0,0-3.434,2.537c-.385.974-1.232.929-2.055.932-1.635,0-3.27-.019-4.9.009-6.008.1-10,4.085-10.143,10.157-.06,2.531-.01,5.065-.01,7.732-16.178-7.247-32.79-29.865-27.919-57.064a54.611,54.611,0,0,1,107.563.389c4.579,26.761-11.66,49.391-27.975,56.66,0-2.54.038-4.965-.007-7.388-.122-6.557-4.1-11.1-10.49-10.263-4.707.618-7.167-2.592-10.644-3.951-1.415-.552-.774-2.17.924-2.588.619.114,1.207.129,1.578-.515l.017.016c1.632-3.229,4.6-2.732,7.447-2.748,6.635-.039,10.491-2.873,11.918-9,.391-1.68,1.091-2.143,2.576-1.99,3.542.364,5.078-1.792,5.828-4.766a14.6,14.6,0,0,0,.3-7.267c-.711-2.817-.941-5.9-4.842-6.283-1.4-.139-.939-1.393-.978-2.237-.173-3.762-2.032-6.488-4.8-8.937-1.562-1.38-4.9-.448-4.919-3.135-.013-2.076,1.339-4.161,2.083-6.243.275-.768.5-1.556.826-2.3.658-1.526.407-2.85-1.145-3.5-1.741-.727-2.885.149-3.494,1.846-1.1,3.07-2.295,6.11-3.312,9.208a2.878,2.878,0,0,1-3.265,2.306c-4.315-.127-8.637-.021-12.955-.047-3.38-.02-7.462,1.055-9.95-.461-2.68-1.632-2.681-6.186-4.034-9.393-.136-.322-.289-.64-.394-.972-.579-1.832-1.47-3.419-3.715-2.475-2.033.854-1.537,2.54-.926,4.176,1.085,2.908,2.1,5.842,3.161,8.821-6.982,1.038-10.8,3.878-11.784,9.029-.449,2.357-.085,4.717-3.557,5.086-1.206.128-1.738,2.083-2.142,3.424a16.44,16.44,0,0,0-.067,9.653c.846,2.817,2.308,4.834,5.7,4.47,1.144-.123,2.122-.125,2.592,1.53,2.041,7.183,5.143,9.5,12.551,9.437C310.867,357.453,313.444,357.356,314.947,360.195Z" fill="url(#linear-gradient)"/>
    <path id="Path_269" data-name="Path 269" d="M525.528,611.565c-.372.645-.959.63-1.578.515A1.245,1.245,0,0,1,525.528,611.565Z" transform="translate(-196.106 -251.329)" fill="#f5f8fa"/>
    <path id="Path_270" data-name="Path 270" d="M426.941,483.011c-4.313,0-8.627.051-12.939-.01-5.834-.082-9.735-3.837-9.676-9.209.058-5.184,3.965-8.881,9.593-8.915q12.763-.078,25.528.006c5.927.04,9.85,3.684,9.866,9,.015,5.345-3.911,9.016-9.784,9.117-2.1.036-4.2.009-6.294.009S429.039,483.009,426.941,483.011Zm18.052-9.068a4.9,4.9,0,0,0-4.641-4.72,4.688,4.688,0,0,0-.041,9.374A4.8,4.8,0,0,0,444.993,473.943Zm-27.12-.081a4.694,4.694,0,0,0-4.644-4.643A4.922,4.922,0,0,0,408.635,474a4.85,4.85,0,0,0,4.722,4.637A4.632,4.632,0,0,0,417.873,473.863Zm.943,16.62a1.609,1.609,0,0,0,1.835,1.673,1.69,1.69,0,0,0,1.716-1.828,1.625,1.625,0,0,0-1.862-1.64A1.575,1.575,0,0,0,418.816,490.482Zm9.757-.068a1.773,1.773,0,0,0-3.544-.018,1.7,1.7,0,0,0,1.769,1.778A1.671,1.671,0,0,0,428.573,490.414Zm4.595-1.738a1.654,1.654,0,0,0-1.916,1.6,1.69,1.69,0,0,0,1.665,1.874c1.146.125,1.7-.562,1.9-1.634C434.73,489.5,434.36,488.728,433.168,488.676Z" transform="translate(-104.59 -139.145)" fill="url(#linear-gradient-2)"/>
  </g>
</svg>
