<svg xmlns="http://www.w3.org/2000/svg" width="19.002" height="18.95" viewBox="0 0 19.002 18.95"><defs><style>.a{fill:#a7e2ce;}.b{fill:#75c9ad;}.c{fill:#1c7d5d;}</style></defs><g transform="translate(0.82 0.36)"><path class="a" d="M0,9.475A9.475,9.475,0,1,1,9.475,18.95,9.475,9.475,0,0,1,0,9.475Z" transform="translate(-0.768 -0.36)"/><path class="b" d="M0,9.475A9.7,9.7,0,0,1,9.867,0V18.95A9.7,9.7,0,0,1,0,9.475Z" transform="translate(-0.82 -0.36)"/><g transform="translate(3.049 5.354)"><path class="c" d="M172.3,170.667a1.636,1.636,0,1,0,1.636,1.636A1.637,1.637,0,0,0,172.3,170.667Z" transform="translate(-166.305 -168.214)"/><path class="c" d="M6,74.667a6.448,6.448,0,0,0-6,4.089,6.442,6.442,0,0,0,11.994,0A6.445,6.445,0,0,0,6,74.667Zm0,6.815a2.726,2.726,0,1,1,2.726-2.726A2.727,2.727,0,0,1,6,81.482Z" transform="translate(0 -74.667)"/></g></g></svg>