<?xml version="1.0" encoding="utf-8"?>
<!-- Generator: Adobe Illustrator 24.3.0, SVG Export Plug-In . SVG Version: 6.00 Build 0)  -->
<svg version="1.1" id="Layer_1" xmlns="http://www.w3.org/2000/svg" xmlns:xlink="http://www.w3.org/1999/xlink" x="0px" y="0px"
	 viewBox="0 0 500 500" style="enable-background:new 0 0 500 500;" xml:space="preserve">
<style type="text/css">
	.st0{fill:url(#SVGID_1_);}
	.st1{fill:#FFFFFF;}
</style>
<g>
	<linearGradient id="SVGID_1_" gradientUnits="userSpaceOnUse" x1="299.0864" y1="336.7361" x2="196.8228" y2="159.6103">
		<stop  offset="5.274512e-07" style="stop-color:#0352CC"/>
		<stop  offset="1" style="stop-color:#1CBBEF"/>
	</linearGradient>
	<circle class="st0" cx="247.95" cy="248.17" r="102.25"/>
</g>
<g>
	<path class="st1" d="M184.36,288.61v-80.88c0-0.96,0.6-1.56,1.56-1.56h24.12c3.48,0,5.52,0,6.84,0.12
		c20.64,2.04,27.48,21,20.04,33.96c-0.96,1.68-0.72,3.48,0.84,4.8c15.96,13.44,10.08,45.12-17.52,45.12h-34.32
		C184.95,290.17,184.36,289.57,184.36,288.61z M202.11,276.73h18.12c15.24,0,15.24-24.12,0-24.12h-10.32
		c-0.84,0-1.56-0.72-1.56-1.56v-10.44c0-0.96,0.72-1.56,1.56-1.56h0.48c3.36,0,5.4,0,6.72-0.36c11.4-2.88,10.2-19.2-3.6-19.2h-11.4
		c-2.04,0-3.36,1.32-3.36,3.36v50.52C198.75,275.41,200.07,276.73,202.11,276.73z"/>
	<path class="st1" d="M251.55,218.05v-10.32c0-0.96,0.6-1.56,1.56-1.56h66c0.96,0,1.56,0.6,1.56,1.56v10.32
		c0,0.96-0.6,1.56-1.56,1.56h-66C252.15,219.61,251.55,219.01,251.55,218.05z M278.79,232.81c0-0.96,0.72-1.56,1.56-1.56h11.28
		c0.96,0,1.56,0.6,1.56,1.56v55.8c0,0.96-0.6,1.56-1.56,1.56h-11.28c-0.84,0-1.56-0.6-1.56-1.56V232.81z"/>
</g>
</svg>
