<?xml version="1.0" encoding="utf-8"?>
<!-- Generator: Adobe Illustrator 24.3.0, SVG Export Plug-In . SVG Version: 6.00 Build 0)  -->
<svg version="1.1" id="Layer_1" xmlns="http://www.w3.org/2000/svg" xmlns:xlink="http://www.w3.org/1999/xlink" x="0px" y="0px"
	 viewBox="0 0 500 500" style="enable-background:new 0 0 500 500;" xml:space="preserve">
<style type="text/css">
	.st0{fill:url(#SVGID_1_);}
	.st1{fill:#FFFFFF;}
</style>
<g>
	<linearGradient id="SVGID_1_" gradientUnits="userSpaceOnUse" x1="302.782" y1="339.6353" x2="200.5184" y2="162.5095">
		<stop  offset="5.274512e-07" style="stop-color:#0352CC"/>
		<stop  offset="1" style="stop-color:#1CBBEF"/>
	</linearGradient>
	<circle class="st0" cx="251.65" cy="251.07" r="102.25"/>
</g>
<g>
	<path class="st1" d="M226.16,210.92c7.7,0,15.07,3.08,21.78,6.93c0.77,0.44,0.77,1.32,0.33,1.98l-5.94,8.47
		c-0.55,0.77-1.21,0.88-1.98,0.33c-3.3-2.42-8.25-4.62-14.08-4.62c-34.65,0-34.65,54.12,0,54.12c7.15,0,11.55-2.2,14.19-4.4
		c0.66-0.55,1.43-0.44,1.87,0.22l6.05,8.36c0.44,0.66,0.33,1.54-0.33,1.98c-5.94,4.62-12.32,6.93-21.89,6.93
		c-26.51,0-39.71-20.13-39.71-40.15C186.45,230.94,199.65,210.92,226.16,210.92z M217.14,250.19l8.03-7.92
		c0.66-0.66,1.32-0.55,1.98,0l8.03,7.92c0.66,0.66,0.66,1.43,0,2.09l-8.03,7.92c-0.66,0.55-1.32,0.66-1.98,0l-8.03-7.92
		C216.48,251.73,216.48,250.74,217.14,250.19z"/>
	<path class="st1" d="M259.27,288.14v-75.02c0-0.33,0.22-0.55,0.55-0.55h20.68c3.08,0,4.95,0,6.27,0.11
		c26.4,2.42,29.81,32.89,10.67,43.12c-1.65,0.88-2.09,2.31-1.1,3.74l20.24,28.82c0.55,0.77,0.22,1.21-0.66,1.21h-12.87
		c-0.88,0-1.76-0.44-2.31-1.21l-19.69-28.38c-0.44-0.66-0.88-1.65-0.88-2.53v-9.57c0-0.88,0.55-1.43,1.43-1.43h1.98
		c16.72,0,16.61-21.45,0-21.45h-8.03c-1.87,0-3.08,1.32-3.08,3.19v59.95c0,0.88-0.55,1.43-1.43,1.43H260.7
		C259.82,289.57,259.27,289.02,259.27,288.14z"/>
</g>
</svg>
