<svg xmlns="http://www.w3.org/2000/svg" width="18.471" height="18.5" viewBox="0 0 18.471 18.5"><defs><style>.a{fill:#6d7d8a;}</style></defs><g transform="translate(-1826.036 -160.8)"><g transform="translate(1826.036 160.8)"><g transform="translate(0)"><path class="a" d="M429.08,624.1a9.274,9.274,0,0,1-9.229-9.206.888.888,0,0,1,.519-.872.851.851,0,0,1,.953.12.937.937,0,0,1,.334.774,7.177,7.177,0,0,0,1.133,3.854,7.276,7.276,0,0,0,5.353,3.429,7.411,7.411,0,0,0,7.671-4.209,7.639,7.639,0,0,0,.709-3.151.863.863,0,0,1,.551-.831.852.852,0,0,1,.932.143.873.873,0,0,1,.316.719,8.791,8.791,0,0,1-1.125,4.388,9.081,9.081,0,0,1-6.72,4.707C430.016,624.044,429.546,624.058,429.08,624.1Z" transform="translate(-419.851 -605.602)"/><path class="a" d="M556.705,419.556v-.235q0-4.417,0-8.835a1.336,1.336,0,0,1,.083-.5.882.882,0,0,1,1-.517.9.9,0,0,1,.721.871c.011.291,0,.583,0,.875q0,4.051,0,8.1v.295c.086-.078.139-.123.188-.172.384-.384.763-.773,1.153-1.15a.872.872,0,0,1,1.017-.162.852.852,0,0,1,.492.919,1.084,1.084,0,0,1-.262.533q-1.118,1.156-2.271,2.277a1.716,1.716,0,0,1-2.453-.006c-.763-.743-1.513-1.5-2.263-2.257a.9.9,0,1,1,1.275-1.274c.42.414.827.84,1.24,1.261Z" transform="translate(-548.377 -409.456)"/></g></g></g></svg>