<svg id="download-button" xmlns="http://www.w3.org/2000/svg" width="14.512" height="14.512" viewBox="0 0 14.512 14.512">
  <g id="archive">
    <path id="Path_158" data-name="Path 158" d="M14.109,1.774,12.98.4a1.04,1.04,0,0,0-.887-.4H2.419a1.335,1.335,0,0,0-.967.4L.4,1.774A1.7,1.7,0,0,0,0,2.822V12.9a1.617,1.617,0,0,0,1.612,1.612H12.9A1.617,1.617,0,0,0,14.512,12.9V2.822A1.7,1.7,0,0,0,14.109,1.774ZM7.256,11.69,2.822,7.256H5.644V5.644H8.868V7.256H11.69ZM1.693,1.612,2.338.806h9.675l.726.806Z" fill="#0e83dc"/>
  </g>
</svg>
