<?xml version="1.0" encoding="utf-8"?>
<!-- Generator: Adobe Illustrator 24.3.0, SVG Export Plug-In . SVG Version: 6.00 Build 0)  -->
<svg version="1.1" id="Layer_1" xmlns="http://www.w3.org/2000/svg" xmlns:xlink="http://www.w3.org/1999/xlink" x="0px" y="0px"
	 viewBox="0 0 500 500" style="enable-background:new 0 0 500 500;" xml:space="preserve">
<style type="text/css">
	.st0{fill:url(#SVGID_1_);}
	.st1{fill:#FFFFFF;}
</style>
<g>
	<linearGradient id="SVGID_1_" gradientUnits="userSpaceOnUse" x1="291.5647" y1="338.0977" x2="189.3011" y2="160.972">
		<stop  offset="5.274512e-07" style="stop-color:#0352CC"/>
		<stop  offset="1" style="stop-color:#1CBBEF"/>
	</linearGradient>
	<circle class="st0" cx="240.43" cy="249.53" r="102.25"/>
</g>
<g>
	<path class="st1" d="M181.33,207.54h51.24c0.96,0,1.56,0.6,1.56,1.56v10.32c0,0.96-0.6,1.56-1.56,1.56h-35.04
		c-2.04,0-3.36,1.32-3.36,3.36v19.68c0,2.04,1.32,3.36,3.36,3.36h26.4c0.96,0,1.56,0.6,1.56,1.56v10.32c0,0.96-0.6,1.56-1.56,1.56
		h-26.4c-2.04,0-3.36,1.32-3.36,3.36v25.8c0,0.96-0.6,1.56-1.56,1.56h-11.28c-0.96,0-1.56-0.6-1.56-1.56V209.1
		C179.77,208.14,180.37,207.54,181.33,207.54z"/>
	<path class="st1" d="M231.97,219.42V209.1c0-0.96,0.6-1.56,1.56-1.56h66c0.96,0,1.56,0.6,1.56,1.56v10.32
		c0,0.96-0.6,1.56-1.56,1.56h-66C232.57,220.98,231.97,220.38,231.97,219.42z M259.21,234.18c0-0.96,0.72-1.56,1.56-1.56h11.28
		c0.96,0,1.56,0.6,1.56,1.56v55.8c0,0.96-0.6,1.56-1.56,1.56h-11.28c-0.84,0-1.56-0.6-1.56-1.56V234.18z"/>
</g>
</svg>
