<svg xmlns="http://www.w3.org/2000/svg" xmlns:xlink="http://www.w3.org/1999/xlink" width="1527" height="706" viewBox="0 0 1527 706"><defs><style>.a{fill:#f1fbf7;}.b{clip-path:url(#a);}.c{opacity:0.31;}.d{fill:#a7e2ce;}.e{fill:#75c9ad;}.f{fill:#1c7d5d;}</style><clipPath id="a"><rect class="a" width="1527" height="706" transform="translate(197 116)"/></clipPath></defs><g transform="translate(-197 -116)"><rect class="a" width="1527" height="706" transform="translate(197 116)"/><g class="b"><g class="c" transform="translate(1406.516 545.76)"><path class="d" d="M0,236.3C0,105.8,105.8,0,236.3,0S472.6,105.8,472.6,236.3,366.8,472.6,236.3,472.6,0,366.813,0,236.3Z" transform="translate(0.473 -0.36)"/><path class="e" d="M0,236.3C0,106.145,110.07.566,246.071,0V472.6C110.07,472.034,0,366.464,0,236.3Z" transform="translate(-0.82 -0.36)"/><g transform="translate(95.683 142.143)"><path class="f" d="M211.458,170.667a40.791,40.791,0,1,0,40.791,40.791A40.824,40.824,0,0,0,211.458,170.667Z" transform="translate(-61.891 -109.481)"/><path class="f" d="M149.567,74.667A160.809,160.809,0,0,0,0,176.644c23.523,59.69,81.582,101.977,149.567,101.977A160.741,160.741,0,0,0,299.134,176.644,160.74,160.74,0,0,0,149.567,74.667Zm0,169.962a67.985,67.985,0,1,1,67.985-67.984A68.01,68.01,0,0,1,149.567,244.629Z" transform="translate(0 -74.667)"/></g></g><g class="c" transform="translate(11.82 -102.24)"><path class="d" d="M0,236.3C0,105.8,105.8,0,236.3,0S472.6,105.8,472.6,236.3,366.8,472.6,236.3,472.6,0,366.813,0,236.3Z" transform="translate(0.473 -0.36)"/><path class="e" d="M0,236.3C0,106.145,110.07.566,246.071,0V472.6C110.07,472.034,0,366.464,0,236.3Z" transform="translate(-0.82 -0.36)"/><g transform="translate(95.683 142.143)"><path class="f" d="M211.458,170.667a40.791,40.791,0,1,0,40.791,40.791A40.824,40.824,0,0,0,211.458,170.667Z" transform="translate(-61.891 -109.481)"/><path class="f" d="M149.567,74.667A160.809,160.809,0,0,0,0,176.644c23.523,59.69,81.582,101.977,149.567,101.977A160.741,160.741,0,0,0,299.134,176.644,160.74,160.74,0,0,0,149.567,74.667Zm0,169.962a67.985,67.985,0,1,1,67.985-67.984A68.01,68.01,0,0,1,149.567,244.629Z" transform="translate(0 -74.667)"/></g></g></g></g></svg>