<?xml version="1.0" encoding="utf-8"?>
<!-- Generator: Adobe Illustrator 25.1.0, SVG Export Plug-In . SVG Version: 6.00 Build 0)  -->
<svg version="1.1" id="Layer_1" xmlns="http://www.w3.org/2000/svg" xmlns:xlink="http://www.w3.org/1999/xlink" x="0px" y="0px"
	 viewBox="0 0 1548.1 730.3" style="enable-background:new 0 0 1548.1 730.3;" xml:space="preserve">
<style type="text/css">
	.st0{fill:#FFFFFF;}
	.st1{fill:url(#SVGID_1_);}
</style>
<g>
	<g>
		<g>
			<path class="st0" d="M676.1,453.3L623.5,305h46.6l32.5,112.1L735.4,305h42.1l-52.2,148.3H676.1z"/>
			<path class="st0" d="M794.7,288.1v-40.9h45.2v40.9H794.7z M794.7,453.3V305h45.2v148.3H794.7z"/>
			<path class="st0" d="M909.3,453.3L856.8,305h46.6l32.5,112.1L968.6,305h42.1l-52.2,148.3H909.3z"/>
			<path class="st0" d="M1046.3,306.1h16.9l-5.9,28.5c7.5-9.2,16.5-16.7,26.8-22.5c10.4-5.7,20.9-8.6,31.6-8.6
				c8.1,0,15.4,1.7,21.9,5.1s12,7.9,16.5,13.6c4.5,5.6,8,12.2,10.3,19.8c2.4,7.5,3.5,15.3,3.5,23.4c0,11.5-2.2,22.7-6.5,33.6
				s-10.3,20.6-17.8,29.1s-16.2,15.3-26.1,20.3c-9.9,5.1-20.3,7.6-31.2,7.6c-11.9,0-21.6-3.2-29.2-9.5s-13.1-14.3-16.5-23.9
				l-19.2,90.7h-19.2L1046.3,306.1z M1084.7,439.1c8.5,0,16.6-2.1,24.3-6.4c7.7-4.2,14.4-9.7,20.2-16.4c5.7-6.7,10.3-14.2,13.7-22.6
				c3.4-8.4,5.1-16.8,5.1-25.3c0-6.6-0.9-12.8-2.8-18.6c-1.9-5.8-4.6-10.9-8.2-15.2c-3.6-4.3-7.8-7.8-12.7-10.3
				c-4.9-2.5-10.4-3.8-16.7-3.8c-4.5,0-9.5,1-14.8,3s-10.6,4.6-15.7,7.9s-9.7,7.2-13.7,11.6s-7,9.1-8.9,14l-9.6,45.2
				c0.9,5.3,2.6,10.2,4.9,14.7c2.4,4.5,5.3,8.4,8.8,11.7c3.5,3.3,7.4,5.9,11.9,7.8C1074.9,438.2,1079.6,439.1,1084.7,439.1z"/>
			<path class="st0" d="M1213.5,306.1h18.1l-7.6,35.3c7.3-10.7,15.7-19.2,25-25.6c9.3-6.3,18.8-9.6,28.4-10c1.5,0,2.8,0,3.8,0.1
				s2,0.2,3,0.4l-3.7,16.7c-12.2,0.4-23.6,4-34.2,10.7c-10.5,6.8-19,16.1-25.4,28l-19.2,91.5h-19.2L1213.5,306.1z"/>
			<path class="st0" d="M1331.5,456.1c-8.7,0-16.4-1.7-23.3-4.9c-6.9-3.3-12.7-7.7-17.4-13.3c-4.7-5.6-8.3-12-10.9-19.5
				c-2.5-7.4-3.8-15.4-3.8-23.9c0-11.9,2.4-23.2,7.2-34.2c4.8-10.9,11.2-20.6,19.3-28.9c8.1-8.4,17.4-15.1,28-20.2
				c10.5-5.1,21.6-7.6,33.3-7.6c8.7,0,16.4,1.7,23.2,4.9c6.8,3.3,12.6,7.7,17.4,13.3c4.8,5.6,8.5,12.1,11,19.6s3.8,15.5,3.8,24
				c0,11.7-2.4,23-7.2,33.9c-4.8,10.9-11.2,20.6-19.2,28.9c-8,8.4-17.3,15.1-28,20.2C1354.3,453.5,1343.2,456.1,1331.5,456.1z
				 M1335.2,439.1c7.9,0,15.7-1.9,23.4-5.8c7.7-3.9,14.6-9,20.6-15.5s10.9-14,14.7-22.6c3.8-8.6,5.6-17.7,5.6-27.3
				c0-6.6-0.9-12.8-2.8-18.6c-1.9-5.8-4.6-10.9-8-15.1c-3.5-4.2-7.6-7.6-12.4-10s-10.1-3.7-16-3.7c-7.9,0-15.7,1.9-23.3,5.8
				c-7.6,3.9-14.5,9.1-20.6,15.7s-11.1,14.2-14.8,22.9c-3.8,8.7-5.6,17.8-5.6,27.4c0,6.6,0.9,12.8,2.8,18.5s4.6,10.7,8,15
				c3.5,4.2,7.6,7.5,12.4,9.9C1324,438,1329.3,439.1,1335.2,439.1z"/>
		</g>
	</g>
	<g>
		
			<linearGradient id="SVGID_1_" gradientUnits="userSpaceOnUse" x1="137.1034" y1="366.8678" x2="580.1564" y2="366.8678" gradientTransform="matrix(1 0 0 -1 0 732)">
			<stop  offset="1.060230e-06" style="stop-color:#29ABE2"/>
			<stop  offset="1" style="stop-color:#39B54A"/>
		</linearGradient>
		<path class="st1" d="M486.1,568.2c-4.3,0-8.1-3.2-10.8-6c-16.4-15.5-33-30.8-49.4-46.2c-3.4-3.2-7.5-5.5-12-6.7
			c-32.2-9.6-67.5-21.3-89-48.7c-7.5-10.6-6.6-17.2,2.8-26.6c21-21.1,42.1-42.1,63.1-63.2c5.6-5.6,9.1-12.1,9.9-20.3
			c1.1-12.3,14.8-24.4,26.8-24.3c12.7,0.1,26.9,12.8,28.2,25.7c1,9.7-4.9,26.4-20.7,29.3c-11.5,2.2-20.6,7.6-28.5,16
			c-13.1,14-26.6,27.5-39.6,41.5c-7.8,8.4-7.9,10.2,1.8,15.7c36.8,22.2,86.2,43.3,124.3,12c13.1-9.4,35.3-26.5,48.5-54.9
			c21.6-54.6-5.5-121.3-71.8-117.8c-13,1.1-20.6-19.3-9.7-25.3c10.4-4.9,6.2-11.7,3.4-17.3c-8.2-16.6-18.8-31.9-35.1-41.7
			c-36.5-21.8-87.9-17.4-116.9,14.5c-16.2,16.2-31.7,44.2-17.4,66.2c9.5,15.6,0.1,37.5-17.7,40.8c-22.3,3.7-41.3-20.1-31.4-38.1
			c5.8-12.3,9.3-8,14-34.9c1.1-6.2-2.2-10.4-8.2-9.7c-90.1,10.5-114,134.1-31.4,173.9c7,2.9,12.3,0.2,16.6-4
			c45.7-45.2,91.3-90.5,135.7-136.9c4.1-4.2,4.9-9.5,5.8-14.5c3.1-17.4,14.5-23.4,26.7-24.8c11.4-1.3,26.7,12.8,28.7,25
			c2.3,14-10.4,29.1-27.1,31.5c-5.9,0.8-10.6,3.2-14.7,7.1c-48.3,45.6-94.6,93.2-140.9,140.9c-16.3,16.8-17.7,15.9-38.3,6.6
			c-41-18.3-65.4-50.6-72.9-95.1c-13.4-72.2,50.2-143.2,122.8-140.3c10.1,0,16.6-2.4,23.3-9.6c17.1-18.6,38.5-32.6,62.8-39.5
			c18.1-6,33.9-8.9,53.3-4.2c48,7.4,84.1,44.4,97.4,89.8c2,6.7,4.9,10.4,11.6,12.7c46.4,14,72.1,60.1,69.8,106.4
			c4,62.7-39.4,108.8-88.5,131.4c-7.3,2.9-12.3,5.5-8.3,10.2c9.1,10.6,18.6,20.9,28.3,31l7.8,8.1c5.2,5.4,1.4,14.4-6.1,14.4
			L486.1,568.2L486.1,568.2z"/>
		<path class="st0" d="M405.7,279.9c-6.5-0.2-10.5-4.4-10.2-11c0.3-6.4,4.7-10.7,11.1-10.1s9.8,4.5,10,10.7
			C416.9,275.7,412,280.1,405.7,279.9z"/>
		<path class="st0" d="M271.4,294.1c5.8,0.6,8.7,4.9,9.3,10.8c0.6,6.2-4.4,10.4-10.9,10.2c-6.8-0.2-9.6-4.3-9.9-10.4
			C259.6,298.4,264.3,294,271.4,294.1z"/>
		<path class="st0" d="M429.1,343.4c5.9-0.2,10.8,4.5,10.6,10.6c-0.2,6.2-3.5,10.1-10,10.2c-6.4,0.1-10.1-3.1-10.4-9.6
			C419,347.9,422.8,343.6,429.1,343.4z"/>
	</g>
</g>
</svg>
