<svg xmlns="http://www.w3.org/2000/svg" width="26.912" height="23.378" viewBox="0 0 26.912 23.378"><defs><style>.a{fill:#3ab09e;}</style></defs><g transform="translate(0 -33.625)"><g transform="translate(0 44.232)"><g transform="translate(0 0)"><path class="a" d="M25.614,235.408H1.082a1.082,1.082,0,1,0,0,2.165H25.614a1.082,1.082,0,0,0,0-2.165Z" transform="translate(0 -235.408)"/></g></g><g transform="translate(14.142 33.625)"><g transform="translate(0 0)"><path class="a" d="M281.493,44.549,270.887,33.942a1.082,1.082,0,0,0-1.53,1.531l9.841,9.841-9.841,9.841a1.082,1.082,0,1,0,1.53,1.53l10.606-10.606A1.082,1.082,0,0,0,281.493,44.549Z" transform="translate(-269.04 -33.625)"/></g></g></g></svg>