<svg xmlns="http://www.w3.org/2000/svg" width="24" height="23" viewBox="0 0 24 23">
  <g id="Group_418" data-name="Group 418" transform="translate(24.467 23) rotate(180)">
    <g id="Ellipse_59" data-name="Ellipse 59" transform="translate(0.467)" fill="none" stroke="#111" stroke-width="0.8">
      <ellipse cx="12" cy="11.5" rx="12" ry="11.5" stroke="none"/>
      <ellipse cx="12" cy="11.5" rx="11.6" ry="11.1" fill="none"/>
    </g>
    <g id="like_2_" data-name="like (2)" transform="translate(5.328 6.261)">
      <path id="Path_262" data-name="Path 262" d="M2.869,0H.41A.41.41,0,0,0,0,.41V7.789a.41.41,0,0,0,.41.41h2.46a.41.41,0,0,0,.41-.41V.41A.41.41,0,0,0,2.869,0ZM2.46,7.379H.82V.82H2.46Z" transform="translate(0 3.279)"/>
      <path id="Path_263" data-name="Path 263" d="M7.5,4.1H5.082a.41.41,0,0,1-.359-.609l.854-1.538A1.229,1.229,0,0,0,4.8.163L4.2.012a.409.409,0,0,0-.4.123L.526,3.767A2.049,2.049,0,0,0,0,5.138v3.47a2.052,2.052,0,0,0,2.05,2.05H6.128A2.054,2.054,0,0,0,8.1,9.15l.875-3.2A1.514,1.514,0,0,0,7.5,4.1Zm.68,1.654-.871,3.18a1.232,1.232,0,0,1-1.186.9H2.05A1.231,1.231,0,0,1,.82,8.608V5.138a1.229,1.229,0,0,1,.315-.823L4.239.867,4.6.958a.41.41,0,0,1,.259.6L4.007,3.092A1.23,1.23,0,0,0,5.082,4.919H7.5a.7.7,0,0,1,.694.694.678.678,0,0,1-.014.14Z" transform="translate(4.099 0)"/>
    </g>
  </g>
</svg>
