<?xml version="1.0" encoding="utf-8"?>
<!-- Generator: Adobe Illustrator 24.3.0, SVG Export Plug-In . SVG Version: 6.00 Build 0)  -->
<svg version="1.1" id="Layer_1" xmlns="http://www.w3.org/2000/svg" xmlns:xlink="http://www.w3.org/1999/xlink" x="0px" y="0px"
	 viewBox="0 0 500 500" style="enable-background:new 0 0 500 500;" xml:space="preserve">
<style type="text/css">
	.st0{fill:url(#SVGID_1_);}
	.st1{fill:#FFFFFF;}
</style>
<g>
	<linearGradient id="SVGID_1_" gradientUnits="userSpaceOnUse" x1="302.7822" y1="339.6351" x2="200.5186" y2="162.5094">
		<stop  offset="5.274512e-07" style="stop-color:#0352CC"/>
		<stop  offset="1" style="stop-color:#1CBBEF"/>
	</linearGradient>
	<circle class="st0" cx="251.65" cy="251.07" r="102.25"/>
</g>
<g>
	<path class="st1" d="M218.19,210.81c19.8,0,39.6,13.42,39.6,40.26s-19.8,40.26-39.6,40.26c-19.91,0-39.71-13.42-39.71-40.26
		S198.28,210.81,218.19,210.81z M218.19,278.02c13.31,0,26.73-8.91,26.73-26.95s-13.42-26.95-26.73-26.95
		c-13.42,0-26.73,8.91-26.73,26.95S204.77,278.02,218.19,278.02z M209.17,250.08l8.03-8.03c0.55-0.55,1.32-0.66,1.98,0l8.03,8.03
		c0.55,0.55,0.55,1.43,0,1.98l-8.03,8.03c-0.66,0.66-1.43,0.55-1.98,0l-8.03-8.03C208.51,251.4,208.51,250.74,209.17,250.08z"/>
	<path class="st1" d="M267.25,288.14v-75.02c0-0.33,0.22-0.55,0.55-0.55h20.68c3.08,0,4.95,0,6.27,0.11
		c26.4,2.42,29.81,32.89,10.67,43.12c-1.65,0.88-2.09,2.31-1.1,3.74l20.24,28.82c0.55,0.77,0.22,1.21-0.66,1.21h-12.87
		c-0.88,0-1.76-0.44-2.31-1.21l-19.69-28.38c-0.44-0.66-0.88-1.65-0.88-2.53v-9.57c0-0.88,0.55-1.43,1.43-1.43h1.98
		c16.72,0,16.61-21.45,0-21.45h-8.03c-1.87,0-3.08,1.32-3.08,3.19v59.95c0,0.88-0.55,1.43-1.43,1.43h-10.34
		C267.79,289.57,267.25,289.02,267.25,288.14z"/>
</g>
</svg>
