<?xml version="1.0" encoding="utf-8"?>
<!-- Generator: Adobe Illustrator 24.3.0, SVG Export Plug-In . SVG Version: 6.00 Build 0)  -->
<svg version="1.1" id="Layer_1" xmlns="http://www.w3.org/2000/svg" xmlns:xlink="http://www.w3.org/1999/xlink" x="0px" y="0px"
	 viewBox="0 0 500 500" style="enable-background:new 0 0 500 500;" xml:space="preserve">
<style type="text/css">
	.st0{fill:url(#SVGID_1_);}
	.st1{fill:#FFFFFF;}
</style>
<g>
	<linearGradient id="SVGID_1_" gradientUnits="userSpaceOnUse" x1="303.2314" y1="339.7336" x2="200.9678" y2="162.6079">
		<stop  offset="5.274512e-07" style="stop-color:#0352CC"/>
		<stop  offset="1" style="stop-color:#1CBBEF"/>
	</linearGradient>
	<circle class="st0" cx="252.1" cy="251.17" r="102.25"/>
</g>
<g>
	<path class="st1" d="M224.02,251.53c0-0.96,0.6-1.56,1.56-1.56h26.16c18.24,0,18.12-27.24,0-27.24h-26.16
		c-0.96,0-1.56-0.6-1.56-1.56v-10.44c0-0.96,0.6-1.56,1.56-1.56h26.16c18.96,0,28.44,13.56,28.44,27.24c0,12.72-8.28,25.56-24.96,27
		c-1.44,0.12-3.48,0.12-6.84,0.12h-6.6c-2.04,0-3.36,1.44-3.36,3.36v24.72c0,0.96-0.6,1.56-1.56,1.56h-11.28
		c-0.96,0-1.56-0.6-1.56-1.56V251.53z"/>
</g>
</svg>
