<svg xmlns="http://www.w3.org/2000/svg" xmlns:xlink="http://www.w3.org/1999/xlink" width="42" height="42" viewBox="0 0 42 42"><defs><style>.a{fill:url(#a);}.b{fill:#fff;}</style><linearGradient id="a" x1="0.276" x2="0.8" y2="1" gradientUnits="objectBoundingBox"><stop offset="0" stop-color="#3ab09e"/><stop offset="1" stop-color="#23c98c"/></linearGradient></defs><circle class="a" cx="21" cy="21" r="21" transform="translate(0)"/><g transform="translate(14.898 12.81)"><path class="b" d="M133.273,401H121.722a.722.722,0,0,0,0,1.444h11.551a.722.722,0,0,0,0-1.444Z" transform="translate(-121 -385.599)"/><path class="b" d="M121.722,88.219h5.053v5.053a.722.722,0,1,0,1.444,0V88.219h5.053a.722.722,0,0,0,0-1.444h-5.053V81.722a.722.722,0,1,0-1.444,0v5.053h-5.053a.722.722,0,0,0,0,1.444Z" transform="translate(-121 -81)"/></g></svg>