<?xml version="1.0" encoding="utf-8"?>
<!-- Generator: Adobe Illustrator 24.3.0, SVG Export Plug-In . SVG Version: 6.00 Build 0)  -->
<svg version="1.1" id="Layer_1" xmlns="http://www.w3.org/2000/svg" xmlns:xlink="http://www.w3.org/1999/xlink" x="0px" y="0px"
	 viewBox="0 0 500 500" style="enable-background:new 0 0 500 500;" xml:space="preserve">
<style type="text/css">
	.st0{fill:url(#SVGID_1_);}
	.st1{fill:#FFFFFF;}
</style>
<g>
	<g>
		<linearGradient id="SVGID_1_" gradientUnits="userSpaceOnUse" x1="301.1318" y1="338.5629" x2="198.8682" y2="161.4371">
			<stop  offset="5.274512e-07" style="stop-color:#0352CC"/>
			<stop  offset="1" style="stop-color:#1CBBEF"/>
		</linearGradient>
		<circle class="st0" cx="250" cy="250" r="102.25"/>
	</g>
	<g>
		<path class="st1" d="M221.85,277.39l8.03-6.27c0.66-0.44,1.43-0.44,1.98,0.22c4.84,5.61,12.21,7.37,19.36,7.37
			c5.83,0,14.52-2.2,14.52-9.46c0-14.85-42.79-13.2-42.79-39.05c0-0.77,0.66-1.43,1.54-1.43h10.01c0.88,0,1.43,0.55,1.54,1.43
			c1.98,15.84,42.68,13.31,42.68,39.49c0,14.96-14.74,22-27.94,22c-10.89,0-22.11-3.74-29.15-12.32
			C221.08,278.71,221.19,277.94,221.85,277.39z M235.71,211.06c4.07-1.76,8.8-2.75,13.64-2.75c9.46,0,18.7,4.29,25.96,10.34
			c0.66,0.55,0.66,1.43,0.11,1.98l-6.71,7.59c-0.66,0.66-1.43,0.66-1.98,0.11c-4.95-4.4-11.11-7.04-17.82-7.04
			c-2.2,0-4.73,0.22-6.93,0.99c-0.88,0.33-1.54,0.11-1.98-0.66l-4.84-8.69C234.72,212.27,234.94,211.39,235.71,211.06z"/>
	</g>
</g>
</svg>
